<svg id="Layer_1" data-name="Layer 1" xmlns="http://www.w3.org/2000/svg" viewBox="0 0 375 227.27">
  <defs>
    <style>
      .cls-1 {
        fill: #fee0d3;
      }
    </style>
  </defs>
  <g>
    <g>
      <path class="cls-1" d="M246.55,102.4c3-.45,5.59-.88,8.19-1.22,5.66-.74,11.3-1.59,17-2.09a23.55,23.55,0,0,1,6.76.71c3.23.68,5.18,2.76,6.31,5.93,2.16,6.07,4,12.38,7.17,17.89,1.8,3.11,5.71,5.49,9.19,7,7.27,3.06,1.94,7.3.45,6.3-1.28.15-4.86-3.65-7.89-6-3.94-3.1-8.11-4.6-13.62-3.68-2.66.39,2.24,11.42-1.77,8.39-1.86-1.28-1.12-6-6.11-13.12-4.58-6.4-11.6-7.35-18.95-6.26-3.58.54-7.16,1.09-10.68,1.87-10.23,2.26-14.65-6.43-13.74-14.49.65-5.81.79-6.28-4.32-8.68a94.3,94.3,0,0,0-10-4,10.5,10.5,0,0,0-11.57,2.62c-2,2.08-4.26,2.5-7.16,2.4-5.68-.2-11.37.45-17.06.44-12,0-23.93-.13-35.89-.43-7.21-.19-14.44-.45-21.59-1.31-11.3-1.37-19.65-7.52-25.4-17.28-6.39-10.85-9-22.27-6.74-34.94.92-5.07,1.5-10.06,3.8-14.77A35.7,35.7,0,0,1,112.25,9.43a30.82,30.82,0,0,1,7.68-1.94c7.14-.87,14.32-1.5,21.48-2.19,3.78-.36,7.59-.54,11.35-1A12,12,0,0,1,163.15,7.9a53,53,0,0,1,11.64,16.66c6.18,14,4.67,28.18,2.77,42.55-.37,2.75-.47,5.54-.72,8.6l11,2a10.93,10.93,0,0,1,2.8.47c8.86,4.23,17.07,1.32,25.14-2.34,9-4.08,17.7-3.06,26.08,1.59,6.17,3.43,7.56,7.57,5.5,14.39C246.44,95,244.88,98.21,246.55,102.4ZM190.79,86.46l7.7,1.87c3.12.77,3.71.39,4.81-3.12-5.32-1.21-10.61-2.54-16-3.59-6.34-1.24-12.73-2.23-19.06.14-4.08-2.86-7.51.16-11.17,1,4.06,2.36,7.61.4,11.22-1.11-.11,3.33-.22,6.66-.35,10.64a35.73,35.73,0,0,0,14.57,1.11c.31-1.55.58-2.81.8-4.08,1-6,2.57-6.6,7.56-2.81l-4.25-.25c-1.32,4.76-.89,6.3,1.74,6,1.28-.12,3.07-1,3.52-2S191.23,87.76,190.79,86.46ZM161.83,70c-3.26-.07-5.54,1-5.7,5.43,6.39.13,12.8,3.06,17.94-.78.28-4.06.2-7,.74-9.83,1.43-7.51,2.58-15.07,1.47-22.65-1.59-10.84-5-21-12.77-29.24a14,14,0,0,0-11.69-4.74c-5.67.36-11.36.66-17,1.17-1.05.1-2,1.06-3.48,1.87,3,2.25,5.35,3.38,8.48,2.5,1.39-.4,3-.11,4.47-.13l-.17.3c-2.17,3-2.06,4.15,1,4.55,3.87.5,7.83.27,12,.37-.26,1-.57,2.19-1,3.69l7.28.89c-.55,3.39-2.45,2.4-4.37,2.18-3.86-.45-6.52.87-5.85,2.61,1.14,3,3.8,1.67,5.93,1.63,2.52,0,5-.24,7.57-.38l.21,1.31c-.82.32-2.11,1.13-2.39.87-2.24-2.09-4.31-.75-6.3.21-.71.34-1.67,1.58-1.5,2C157,34.78,158,36,158.83,36c2.81.24,5.66,0,8.49.07a14,14,0,0,1,2.68.53l-.06,1-11.39,1.11c.89,4.57,1.68,8.6,2.56,13.08l8.95,1.14c-9.61,1.27-9.61,1.27-8.8,8.57l4.89,1.32c-2.82.14-5.52-.14-6.83,3-1,2.42.71,3.39,2.46,4.3Zm-69.08-12c.22,1.5.34,3,.69,4.5,2.23,9.51,6.63,17.65,14.72,23.54s16.84,6.07,26,3.13c.83-.27,1.95-1,2.11-1.75.79-3.75,4-4.88,6.75-6.34a25.73,25.73,0,0,0,14.31-22.47c1.13-24.2-15-43.42-40-44.94-4.08-.25-7.83.67-10.51,3.37C103,21,99.11,25.13,96.5,29.85,91.67,38.6,91.12,48.29,92.75,58.07Zm149.58,57.35c-.18-4,1.52-7.46.52-11.72-.79-3.32,1.15-7.35,2.15-11,.77-2.83,1.64-5.72-.3-8.19-2.72-3.46-6-6.21-10.63-7.1-10.16-2-18.95,2-27.66,6.26-.34.17-.36,1-.73,2,5,2.38,10.3,1.26,15.14,2.66l3.32-8.14c4.85,1.85,9.12,3.32,13.24,5.14,1.6.71,3.74,2,4.06,3.42.59,2.56-2.17,2.38-3.87,3-2.18.81-5,2.23-4.11,4.65,1.3,3.75-.3,6.67-1.12,9.9s.74,5.54,2.68,7.71C236.81,116.09,239,117,242.33,115.42Zm39.59-4.86c-.35-4.69-1.82-6.38-6.09-6.73-2.8-.23-5.65.07-8.48,0-3,0-5.37.68-7.35,3.3-1.15,1.51-3.43,2.15-5.14,3.26a33.17,33.17,0,0,0-2.7,2.12c6.36,1.67,12.27,3.25,18.2,4.76,2.95.75,4.19-1.54,5.06-3.54C276.74,110.74,278.47,109.1,281.92,110.56ZM136.31,91.09c5,3.31,6.63,3.59,9.2,1,3-3,5.54-6.44,8.19-9.58-1.52-2.28-2.84-2.3-4.59-1.1-3,2-6.12,3.73-9.05,5.78C138.75,88.08,137.8,89.5,136.31,91.09Zm143.2,22.08c-2.92,2.76-5.1,5-3.59,8,1.32,2.6,4.35,1.3,6.67,1.48.47,0,1-.4,2-.86Zm-55.9-21.63c2.26-1.91,3.69-2.77,4.59-4a3.46,3.46,0,0,0-.19-2.94c-.34-.66-1.63-1.43-2.2-1.24a3.56,3.56,0,0,0-2.11,2.12C223.36,87,223.61,88.59,223.61,91.54Zm-67-4.28c-5.74.3-6.52,1-7.49,5.85C152.88,93.05,153.91,90,156.65,87.26Zm9.69-1.71c-2.41.4-3.25,1.54-3.14,3.82C166.15,89.34,167.15,88.31,166.34,85.55ZM150.19,21.72l.17,1.41,3.58-.53-.14-1.12ZM234,88.81l-1.49-.89c-.52,1-1,2-1.55,3.08l1.06.63ZM248.21,115l.28-1-2.67-.84a7.72,7.72,0,0,0-.12,1.48A21,21,0,0,0,248.21,115Z"/>
      <path class="cls-1" d="M123.67,63.2c-5.28.58-7.2-2.82-9.4-6.91-2.68,1.58-5.24,3-7.74,4.56a39.27,39.27,0,0,1-3.77,2.52c-1.82.84-3.36.33-4.07-1.73A9.37,9.37,0,0,1,98.33,60c-1.51-10.89-1.78-10.61,7.94-9.32,1.5.2,3.06,0,4.54.25,3.62.66,6.26-.78,8.48-3.47,1-1.28,2.26-2.43,3.31-3.54,6.68,3.46,8.45,7.23,5.09,12.78-3,4.92.11,9.12.26,13.63,0,1.64,1,3.26,1.56,4.87,2.63,7.35.23,10-8.58,8.75.24-4.4.45-8.87.76-13.34a1.76,1.76,0,0,1,.94-1.28C126.59,68.05,123.9,65.79,123.67,63.2Zm-22.5-2.42L110,54.23c-3.53-2.11-6.45-2.39-10-1.07ZM124.3,81.13c2.09-.07,3.65-.77,3.44-2.85s-.37-4.74-3.37-5.86C123.1,75.56,122.52,78.29,124.3,81.13Z"/>
      <path class="cls-1" d="M147.09,41.94c4.68,1.83,5.41,6.29,7.07,10,.75,1.65-1.14,3.31-3.11,2.63-4.64-1.58-9.14-2.37-13.78,0a2.64,2.64,0,0,1-2.35-1,3.7,3.7,0,0,1-.21-3.1,11.72,11.72,0,0,1,3.53-3.62C141.1,45,144.16,43.54,147.09,41.94ZM142.88,50l7,.63C147.89,45.48,147.51,45.42,142.88,50Z"/>
      <path class="cls-1" d="M115.55,30.75a34.7,34.7,0,0,1-1.67-3.55c-1.22-3.56,1.19-8,4.83-8.62a3.23,3.23,0,0,1,2.66,1.33,8.85,8.85,0,0,1,.65,3.87c.08,4.35.09,8.69,0,13a9.42,9.42,0,0,1-1,2.71c-4.36-1.73-4.62-5.48-5.49-8.85l4,3c-.19-4.1-.33-7.19-.5-10.93C114.21,24.69,115.56,28,115.55,30.75Z"/>
      <path class="cls-1" d="M165.64,44.06l6.6-.1v1.31l-6.61-.08Z"/>
      <path class="cls-1" d="M144.27,13.64l8.52-.74c-3.13,2.62-3.13,2.62-8.69,1Z"/>
      <path class="cls-1" d="M161.78,70.13l3.59-.54,0,1L161.83,70Z"/>
    </g>
    <path class="cls-1" d="M130.64,163.13c0,10.07,0,20.14,0,30.21,0,1.8-.08,2.95-2.4,2.78-3.53-.25-7.09-.21-10.64-.29-.95-3.49-.34-7.05-.39-10.57-.11-8.72,0-17.45,0-26.18,0-.64.23-1.72-.51-1.73-1.22,0-.74,1.2-.82,2-.29,2.55-2,4.49-2.85,6.89-3,8.79-6.64,17.38-10.15,26a3.56,3.56,0,0,0-.41,1.83c.29,2-.89,2.14-2.39,2.07-2.65-.13-5.71.59-7.82-.52-1.5-.79-1.62-4-2.53-6.14-4.22-9.67-7.69-19.64-11.41-29.51a3.63,3.63,0,0,0-.91-1.63,12.25,12.25,0,0,0-1.42-.91c-.13.39-.46.83-.38,1.16,2.84,11.6.57,23.38,1.35,35,.14,2.13-.67,2.64-2.64,2.53a79.27,79.27,0,0,0-8.72,0c-1.93.11-2.13-.78-2.13-2.36q.06-30.56,0-61.11c0-2.24.88-2.5,2.74-2.44,3.8.12,7.61.09,11.41,0a3.13,3.13,0,0,1,3.32,2.55c2.37,9.28,6.67,17.85,9.62,26.93,1.52,4.67,3.34,9.34,5.2,13.94a1.31,1.31,0,0,0,1.47,1c.78-.07,1-.46,1.23-1.2,2.14-8.47,6-16.33,8.9-24.51,1.89-5.26,4.08-10.42,5.78-15.73.78-2.45,2.16-3,4.37-2.92,4.22.12,8.45.14,12.68.2,1,4.15.36,8.37.45,12.55C130.73,149.7,130.64,156.41,130.64,163.13Z"/>
    <path class="cls-1" d="M184.35,163.08c0-10.07.05-20.14,0-30.21,0-1.93.36-2.69,2.51-2.67,12.75.1,25.51.07,38.26,0,1.68,0,2.42.38,2.28,2.21-.15,2,0,4-.05,6-.1,2.83-1.09,3.84-4,3.86-7.61.05-15.22.06-22.82,0-1.82,0-2.91.12-2.77,2.42.2,3.12,0,6.26.07,9.4.07,3.35.95,4.29,4.21,4.32,6.26.06,12.53.11,18.79,0,2.1,0,2.74.66,2.52,2.64-.3,2.62,1.14,6-.64,7.66-1.34,1.25-4.63.46-7.05.48-5.15,0-10.3.13-15.44,0-2.25-.07-2.47.88-2.44,2.74.09,7.39,0,14.77.06,22.16,0,1.31-.18,2.1-1.75,2-3.76-.14-7.53-.19-11.3-.28-.9-3.49-.32-7.05-.37-10.57C184.28,177.85,184.35,170.47,184.35,163.08Z"/>
    <path class="cls-1" d="M140.9,130.36c7.51,0,7.51,0,9.81,7.58,1.81,6,3.65,11.92,5.37,17.91.21.75.41,1.23,1.12,1.31,1,.12,1.67-.23,1.62-1.43-.12-3.28,1.63-6,2.57-9,1.43-4.56,2.34-9.27,4-13.8.56-1.56.27-2.86,2.53-2.7,2.67.19,5.37,0,8,0,4.48,0,4.64.09,2.81,4.83-6.33,16.44-11.81,33.17-17.17,49.94-1.47,4.57-3.86,8.74-7.83,11.47s-8.51,2.8-13,2.13a2.65,2.65,0,0,1-1.93-2.45c0-1.79.11-3.59,0-5.37s.23-2.57,2.41-2.79c6.36-.66,10.24-5.4,9.66-11.23a4.43,4.43,0,0,0-.41-1.84c-3.68-6.12-4.92-13.19-7.42-19.75-2.72-7.14-5.6-14.29-7.41-21.79-.74-3-1-3,2-3C138.67,130.34,139.78,130.36,140.9,130.36Z"/>
    <path class="cls-1" d="M311.53,196.07c-7.76,0-7.76,0-11.68-7.18a17.15,17.15,0,0,1-1.49-2.75c-.46-1.34-1.94-3-3.14-3.2s-1.9,1.85-2.43,3.29c-.36,1-1.75,1.49-2.25,2.43-1.25,2.38-1.64,6-3.53,7.05-2.2,1.25-5.63.34-8.53.36a8.56,8.56,0,0,1-1.34,0c-1.29-.18-2.93.67-3.81-.44-1.45-1.83.7-3.52,1.43-4.42,4.83-5.93,7.5-13.21,12.24-19.14.87-1.09,0-1.28-.28-2-1.58-4.22-4.78-7.45-6.86-11.29-1.7-3.15-3.71-6.06-5.57-9.08-.55-.9-1.79-1.52-1.18-2.77.48-1,1.57-.53,2.41-.59a8.53,8.53,0,0,1,2,0c4.22.74,9.13-.75,10.22.9.16,3.46,3.72,5.07,4.48,8.23.09.37.68.59.88,1,1.94,3.59,1.88,3.56,4.07.28.72-1.09,2-1.86,2.57-3,1.26-2.37,1.64-6,3.53-7.05,2.2-1.25,5.63-.34,8.53-.36h1.35c4.79,0,5.44.77,2.71,4.36-4,5.22-6.61,11.3-10.69,16.4-1.82,2.28-1.65,4.22-.3,6.45,2.7,4.47,5.07,9.19,8.18,13.36,1.92,2.57,2.35,6,5.09,8,1.12.82-.19,1.05-.58,1.07C315.56,196.12,313.55,196.07,311.53,196.07Z"/>
    <path class="cls-1" d="M232.7,161.83c0-10.51,0-21,0-31.53,0-1.76,0-3,2.38-2.79,3.53.25,7.09.2,10.63.27,1,3.48.4,7,.41,10.55.08,18.11,0,36.22,0,54.33,0,3.35,0,3.41-3,3.4-3.32,0-6.65-.13-10-.21-.94-3.25-.38-6.58-.42-9.87C232.64,177.93,232.7,169.88,232.7,161.83Z"/>
    <path class="cls-1" d="M267.62,171.92c0,7.38,0,14.75,0,22.13,0,1.3-.17,2.11-1.74,2-3.31-.14-6.63-.18-9.95-.27-.85-3-.37-6.14-.39-9.21-.07-12.51,0-25-.06-37.54,0-1.84.15-2.93,2.42-2.74,3.08.25,6.19.2,9.28.29.85,3,.34,6.14.39,9.21C267.69,161.19,267.62,166.56,267.62,171.92Z"/>
    <path class="cls-1" d="M145.56,114.06a5,5,0,0,1,0-.67c.24-2.39-1.08-5.48.65-7,1.29-1.12,4.24-.48,6.44-.37,1.88.1,4-.79,5.59,1.13.56.65,1.52,0,2.26-.62,1.53-1.27,3.41-.41,5.13-.5a2.64,2.64,0,0,1,2.67,2.4c.21,4.24.12,8.49.05,12.74,0,.67-.67,1-1.44,1s-1.2-.44-1.21-1.21c0-2,0-4,0-6a10.05,10.05,0,0,0-1.1-4.25c-.68-1.51-1.08-2.1-2.6-2a2.93,2.93,0,0,0-3,2.87c-.14,2.9-.09,5.81,0,8.72,0,1.45-.5,2-1.92,1.88-1.18,0-2.19,0-2.15-1.64.06-2.91,0-5.81,0-8.72,0-1.8-1.12-3.1-2.75-3a2.83,2.83,0,0,0-2.63,3.17c.07,2.9,0,5.81,0,8.72,0,1.79-1.3,1.39-2.32,1.42s-1.76,0-1.73-1.35C145.6,118.54,145.56,116.3,145.56,114.06Z"/>
    <path class="cls-1" d="M67,106c1.06-.1,2.25,0,2,1.6-.34,2.07,2.22,3.31,1.42,5.48-.08.2.43.62.67.94a5.21,5.21,0,0,1,1-.93c2-1.15,0-4,2.3-5.15.34-.17-.13-1.73,1.1-1.93A2.39,2.39,0,0,1,78,107.71c.51,1.37.22,3,.63,4.44A3.26,3.26,0,0,0,80.45,114c.39.15.39-1.22.7-1.54,1.38-1.43,1.34-3.1,1.3-4.85,0-2.28,1.73-1.6,2.83-1.5,1.61.13,1.23,1.17.85,2.34-.89,2.77-1.59,5.59-2.34,8.4-.21.8.47,1.9-.52,2.43-1.26.68-.13,3.07-2.69,3s-1.87-1.62-2.24-3-1.61-2.46-1.32-4.15c.11-.63-.48-1.07-1.31-1.06s-1.47.52-1.27,1.09c.77,2.2-1.88,3.36-1.45,5.49.34,1.66-1.07,1.45-2.16,1.53-1.46.1-1.49-.72-1.91-1.9-1.44-4.1-1.4-8.65-3.89-12.43C64.4,106.85,65.35,106,67,106Z"/>
    <path class="cls-1" d="M95.35,122.16c-2.69,1.08-4.74-1.14-5.91-3.35-1-1.86-3.48-4.42-.28-6.75,2-6,2.33-6.28,7.92-6,3.43.14,6.63,5,5.5,8.47a1.3,1.3,0,0,1-1.45,1c-2.67,0-5.33,0-8,0a3.12,3.12,0,0,0-1.12.48,5.1,5.1,0,0,0,.62.94c1.85,1.79,3.47,4.46,6.48,1.45a1.3,1.3,0,0,1,2.1.62,2.1,2.1,0,0,1-.49,1.78C99.48,122.61,97.65,122.07,95.35,122.16Z"/>
    <path class="cls-1" d="M179.1,106c4.27,0,6.07,1.57,6.75,5.88.46,2.89,0,3.48-2.87,3.52-2.22,0-4.45,0-6.67,0-.52,0-1.38,0-.84,1a4.8,4.8,0,0,0,6.42,2.15c1.15-.5,2.06-1,2.57.41a2.12,2.12,0,0,1-1.54,2.58c-2.68.75-5.49,1.33-8.07-.42-1.65-1.12-2.38-3-3.3-4.62s.08-3,.74-4.64C174.54,106.35,174.61,106,179.1,106Z"/>
    <path class="cls-1" d="M135.66,122.13c-2.06.79-3.66-.59-5.26-2.34-1.36-1.49-2.52-2.76-2.37-5.11.3-5,3.39-8.74,7.58-8.67,4.95.08,7.28,2.68,7.27,8.12C142.86,120,141,122.13,135.66,122.13Z"/>
    <path class="cls-1" d="M219.43,114.18c0,5.81-1.88,7.82-6.77,8a6.52,6.52,0,0,1-5.76-2.43c-1.33-1.53-2.46-2.82-2.31-5.13.3-4.93,3.44-8.71,7.62-8.62C217.11,106.11,219.46,108.77,219.43,114.18Z"/>
    <path class="cls-1" d="M120,122.1c-1.43-.17-2.9.43-4.29-.88a13.89,13.89,0,0,1-3.61-5.86c-.8-2.48,2.36-8.79,4.66-9.26a16.4,16.4,0,0,1,6.62,0c1.7.38,1.93,2.63,2.89,4s-.52,1.31-.81,1.9-.89.6-1.39,0-.92-1-1.41-1.42c-2.74-2.55-3.19-2.5-5.58.42-1.73,2.12-1.26,4.49-.61,6.75.41,1.45,3.15,2.26,4.47,1.43.92-.58,1.47-1.79,2.42-2.24s2.29-.68,3.05.18-.86,1.1-1,1.92C124.92,122.37,122.48,122.33,120,122.1Z"/>
    <path class="cls-1" d="M200.75,122.13c-2.33,0-3.87-1.57-4.12-4.46a48,48,0,0,1,0-6.68c.09-1.63-.41-2.16-2.09-2.51a1.23,1.23,0,0,1,.25-2.35c2.2-.16,1.81-1.45,1.8-2.71,0-1.78,1.28-1.4,2.31-1.43s1.91,0,1.71,1.33c-.3,1.87.47,2.61,2.27,3.05.81.21.75,1.89-.12,2.09-1.47.35-2.32.65-2.18,2.44.18,2.21,0,4.45,0,6.68,0,.89-.09,1.87,1.21,1.85,1.15,0,1.61.57,1.46,1.6C203.05,122.77,201.62,121.92,200.75,122.13Z"/>
    <path class="cls-1" d="M109.3,110.68c0,3.35,0,6.69,0,10,0,1.79-1.31,1.36-2.33,1.4s-1.73,0-1.72-1.35c0-6.68,0-13.37,0-20.06,0-1.79,1.31-1.37,2.32-1.41s1.74,0,1.73,1.35C109.27,104,109.3,107.34,109.3,110.68Z"/>
    <path class="cls-1" d="M251.75,137.7c-1.31-1.78-.41-3.69.85-5.7,1.07-1.71,2-3.16,4.28-3.66,4.85-1,9.33.93,10.39,5,1.25,4.79-.63,7.74-5.87,9.18C255.78,144.05,253.19,142.87,251.75,137.7Z"/>
  </g>
</svg>
