<svg id="Layer_1" data-name="Layer 1" xmlns="http://www.w3.org/2000/svg" viewBox="0 0 280.63 227.27">
  <defs>
    <style>
      .cls-1 {
        fill: transparent;
      }

      .cls-2 {
        fill: #1fa914;
      }

      .cls-3 {
        fill: #ffffff;
        stroke: #ffffff;
        stroke-width: 1;
        stroke-linecap: round;
      }

      .cls-3 {
        fill: none;
        stroke: #ffffff;
        stroke-dasharray: 454.0306396484375;
        animation: draw_yFlix 20s forwards linear infinite;
      }

      @keyframes draw_yFlix {
        0% {
          stroke-dashoffset: 454; 
          fill: #ffffff;
          stroke: #c1cbbd;
          fill-opacity: 0;
          stroke-dasharray: 454;
        }
        13% {
          stroke: #ffffff;
        }
        25% {
          stroke-dashoffset: 0;
          fill: #ffffff;
          fill-opacity: 0;
          stroke-dasharray: 454; 
        }
        30% {
          stroke-dashoffset: 0;
          fill: #ffffff;
          fill-opacity: 1;
          stroke-dasharray: 454;
        }
        95% {
          stroke-dashoffset: 0;
          fill: #ffffff;
          stroke: #ffffff;
          fill-opacity: 1;
          stroke-dasharray: 454;
        }
        100% {
          stroke-dashoffset: 0;
          fill: #c1cbbd;
          stroke: #c1cbbd;
          stroke-dasharray: 454;
        }
      }
    </style>
  </defs>
  <g>
    <path class="cls-1" d="M28.15,172.84v23.81c-2,.78-4.27.28-6.41.36s-4.41,0-6.82,0V131.17c4.37,0,9,0,13.6,0,2.08,0,3,.92,3.71,2.9,3.71,10.53,7.3,21.1,11.75,31.38a50,50,0,0,1,3.08,9.47c.15.71,1.08.73,1.71.59a1.34,1.34,0,0,0,.85-.84c2.15-9.34,6.68-17.84,9.5-27,1.46-4.73,3.54-9.26,5.31-13.9a3.61,3.61,0,0,1,3.94-2.66c4.42.14,8.84,0,13.4,0v65.59H68.91c.15.13,0,0-.17-.15a1,1,0,0,1-.26-.55c0-12.51,0-25,0-38.59A87.09,87.09,0,0,0,62,172.4c-2.4,7.08-5.47,13.87-7.94,20.9a21,21,0,0,0-.57,3.19c-.29.15-.66.52-1,.51-3.09-.07-6.17-.21-9.25-.34-1.45-3.65-2.94-7.28-4.33-11-3.17-8.31-6.28-16.64-9.42-25-2.78-.74-2,1.48-2,2.63C27.69,166.53,26.69,169.77,28.15,172.84Z"/>
    <path class="cls-1" d="M135.8,195.46V130.05h42.88c0,2.4.06,5,0,7.63-.08,3.28-1,4.21-4.3,4.24-7.39.06-14.78,0-22.16,0h-3.1c0,4.14-.05,8.11,0,12.08.05,2.91,1,4,3.83,4,6,.08,12.09,0,18.14,0h3.38v10.49h-25c-.71,9,0,17.88-.42,26.91Z"/>
    <path class="cls-1" d="M86.26,130.41h6.46c7.34,0,7.58,0,9.28,6.74,1.57,6.28,3.7,12.37,5.4,18.59.27,1,.42,1.63,1.56,1.56,1.29-.08,1.21-1,1.17-1.9-.17-3.31,1.91-6,2.67-9,1.17-4.65,2.43-9.25,3.94-13.81.48-1.45.49-2.3,2.3-2.25,4,.13,8,0,12.38,0-4.92,14.83-10.64,29.17-14.9,44-1.43,5-3.72,9.65-5.29,14.61a14.89,14.89,0,0,1-7.14,8.28,17.91,17.91,0,0,1-11.37,1.65A3,3,0,0,1,90,195.83c0-2.43,0-4.85,0-7.47,5.41.07,9.27-1.85,11.45-6.8,1-2.19,1.26-4.59.3-6.29-3.63-6.41-4.76-13.69-7.61-20.37C91,147.48,88.62,139.71,86,132.08,85.85,131.74,86.1,131.26,86.26,130.41Z"/>
    <path class="cls-1" d="M184.16,196.79V128.72h12.7c.94,5.47,1.24,47.13.43,68.07Z"/>
    <path class="cls-1" d="M218.77,196.9H207.39c-.62-6.54-.67-42-.06-49.47h11.44Z"/>
    <path class="cls-1" d="M213.16,143.27c-4.21.07-7.38-2.57-7.6-6.32-.24-4.27,2.75-7.12,7.46-7.13,3.5,0,7.37,3.54,7.33,6.72C220.3,140.5,217.43,143.19,213.16,143.27Z"/>
    <path class="cls-1" d="M28.15,172.84a1,1,0,0,1-1.32-1c0-4.95,0-9.91,0-15.08,2.19.87,2.95,2.13,2.69,4-1.25-.1-1.34.74-1.34,1.66C28.14,165.88,28.15,169.36,28.15,172.84Z"/>
    <path class="cls-1" d="M268.6,147.82c.36,3.58-2.55,5.83-4.2,8.14-3,4.13-4.8,9-8.25,12.77-1.58,1.74-1.3,3.76.17,5.92,2.92,4.31,5.13,9.13,8.23,13.3,2,2.73,2.38,6.49,6.81,9.08h-8.44c-7.75,0-7.6-.09-11.75-7.14-1.22-2.09-1.51-5.74-3.71-6-3.26-.47-3.34,3.89-5.3,5.79-1.8,1.74-2.36,4.75-3.46,7.2-3.1.06-6.21.14-9.31.19-1.53,0-3.06,0-4.78,0-.28-4.24,3.07-6.46,4.67-9.43,2.48-4.62,5.67-8.84,8.54-13.24a5.61,5.61,0,0,0,0-4.24c-4.09-6.59-8.19-13.16-12.36-19.69-.46-.72-1.34-1.25-1-2.24s1.32-.9,2.17-.89,1.79,0,2.68,0l9.35.1a82.56,82.56,0,0,0,4.83,8.7c1.06,1.51,1.1,3.81,3.3,4.49,1.92-1.37,2.51-3.83,4.06-5.65,1.8-2.14,2.67-5.06,3.94-7.64,3.35,0,6.71-.06,10.06,0C266.06,147.36,267.44,146.82,268.6,147.82Z"/>
    <g>
      <path class="cls-2" d="M194.09,103.31c3-.45,5.58-.87,8.19-1.22,5.65-.74,11.3-1.59,17-2.09a23.66,23.66,0,0,1,6.77.72c3.22.67,5.17,2.75,6.3,5.93,2.16,6.06,4,12.37,7.18,17.88,1.79,3.11,5.71,5.49,9.18,7,7.27,3.06,1.94,7.31.46,6.31-1.29.15-4.86-3.66-7.89-6-3.94-3.1-8.11-4.6-13.63-3.67-2.66.38,2.25,11.42-1.77,8.39-1.86-1.28-1.11-6-6.11-13.13-4.58-6.4-11.59-7.35-19-6.25-3.57.53-7.15,1.08-10.68,1.86-10.23,2.26-14.65-6.42-13.74-14.49.66-5.81.79-6.27-4.31-8.68a95.15,95.15,0,0,0-10-4,10.53,10.53,0,0,0-11.58,2.62c-2,2.09-4.26,2.51-7.16,2.41-5.67-.2-11.37.44-17.06.43-12,0-23.93-.13-35.89-.43-7.2-.18-14.44-.44-21.58-1.31-11.31-1.37-19.65-7.51-25.4-17.28C37,67.47,34.32,56,36.61,43.37c.92-5.07,1.5-10.06,3.8-14.76A35.7,35.7,0,0,1,59.79,10.34,31.18,31.18,0,0,1,67.46,8.4c7.15-.87,14.32-1.49,21.48-2.18,3.78-.37,7.59-.54,11.35-1a12,12,0,0,1,10.4,3.62,53.16,53.16,0,0,1,11.64,16.66c6.18,14,4.66,28.19,2.76,42.55-.36,2.76-.47,5.55-.72,8.6l11.06,2a11.47,11.47,0,0,1,2.8.48c8.86,4.22,17.07,1.31,25.14-2.34,9-4.09,17.7-3.07,26.07,1.59,6.17,3.43,7.56,7.56,5.5,14.39C194,95.94,192.41,99.12,194.09,103.31ZM138.32,87.37l7.7,1.88c3.12.77,3.72.38,4.81-3.13-5.31-1.2-10.61-2.54-16-3.59-6.34-1.23-12.72-2.23-19.06.15-4.08-2.87-7.5.16-11.17,1,4.06,2.36,7.61.4,11.22-1.1-.11,3.32-.22,6.65-.35,10.64a35.94,35.94,0,0,0,14.58,1.1c.3-1.54.57-2.8.79-4.08,1-6,2.57-6.6,7.57-2.8l-4.25-.26c-1.33,4.77-.9,6.3,1.73,6,1.28-.12,3.07-1,3.52-2S138.76,88.67,138.32,87.37ZM109.36,71c-3.26-.06-5.54,1-5.69,5.44,6.39.13,12.8,3,17.93-.79.28-4.06.2-7,.74-9.83,1.43-7.5,2.59-15.06,1.48-22.65-1.59-10.84-5-21-12.77-29.24A14,14,0,0,0,99.36,9.14c-5.68.36-11.36.66-17,1.17-1,.1-2,1.06-3.48,1.88,3,2.24,5.36,3.37,8.48,2.49a17.93,17.93,0,0,1,4.47-.13l-.17.31c-2.16,3-2,4.14,1,4.54,3.86.5,7.82.28,12,.37l-1,3.7,7.27.88c-.54,3.39-2.44,2.4-4.37,2.18-3.86-.45-6.51.87-5.85,2.61,1.14,3,3.81,1.67,5.94,1.63,2.52,0,5-.24,7.56-.37l.22,1.31c-.83.31-2.11,1.13-2.4.86-2.24-2.08-4.3-.75-6.3.21-.71.34-1.67,1.58-1.5,2,.33.89,1.32,2.07,2.13,2.14,2.81.24,5.65,0,8.49.07a14.84,14.84,0,0,1,2.67.53l-.06,1-11.39,1.11c.9,4.57,1.69,8.6,2.56,13.08l9,1.15c-9.6,1.27-9.6,1.27-8.79,8.56l4.88,1.32c-2.81.15-5.51-.14-6.82,3-1,2.42.7,3.4,2.45,4.3ZM40.28,59c.23,1.5.35,3,.69,4.5C43.2,73,47.61,81.13,55.7,87s16.83,6.08,26,3.13c.82-.26,1.95-1,2.1-1.75.8-3.75,4-4.88,6.76-6.34a25.73,25.73,0,0,0,14.3-22.47c1.14-24.19-15-43.41-40-44.94C60.75,14.4,57,15.32,54.33,18c-3.84,3.87-7.69,8-10.3,12.74C39.2,39.51,38.65,49.2,40.28,59Zm149.58,57.35c-.18-4,1.52-7.46.52-11.72-.78-3.32,1.15-7.35,2.15-11,.78-2.83,1.65-5.71-.29-8.19-2.73-3.46-6.06-6.21-10.64-7.1-10.16-2-18.94,2-27.65,6.26-.34.17-.37,1-.74,2,5,2.38,10.3,1.27,15.14,2.66,1.3-3.17,2.34-5.71,3.32-8.13,4.85,1.85,9.12,3.31,13.24,5.13,1.6.71,3.74,2,4.06,3.43.59,2.56-2.17,2.38-3.87,3-2.18.81-5,2.23-4.11,4.65,1.31,3.74-.3,6.66-1.12,9.9s.74,5.53,2.68,7.7S186.52,117.87,189.86,116.33Zm39.59-4.85c-.35-4.7-1.82-6.38-6.08-6.74-2.81-.23-5.66.07-8.49,0-3-.05-5.37.68-7.35,3.3-1.14,1.52-3.42,2.15-5.14,3.26-1,.63-1.82,1.42-2.7,2.12,6.36,1.67,12.27,3.26,18.2,4.76,3,.75,4.19-1.54,5.06-3.53C224.27,111.65,226,110,229.45,111.48ZM83.84,92c5,3.31,6.63,3.59,9.2,1,3-3,5.55-6.44,8.2-9.57-1.52-2.29-2.85-2.31-4.6-1.11-3,2-6.12,3.73-9,5.78A30,30,0,0,0,83.84,92ZM227,114.08c-2.92,2.77-5.1,5-3.58,8,1.32,2.59,4.35,1.3,6.66,1.47.47,0,1-.39,2-.85Zm-55.9-21.63c2.27-1.9,3.7-2.76,4.59-4a3.45,3.45,0,0,0-.18-2.94c-.34-.66-1.64-1.42-2.21-1.23a3.51,3.51,0,0,0-2.1,2.11C170.89,87.88,171.14,89.51,171.14,92.45Zm-67-4.28c-5.74.31-6.52,1-7.48,5.85C100.42,94,101.44,90.87,104.18,88.17Zm9.7-1.7c-2.42.39-3.26,1.53-3.14,3.81C113.69,90.25,114.68,89.23,113.88,86.47ZM97.73,22.63l.17,1.42,3.57-.54-.13-1.12Zm83.83,67.1-1.49-.89-1.55,3.07,1.07.64Zm14.18,26.2.28-1-2.67-.84a9.74,9.74,0,0,0-.12,1.47A21,21,0,0,0,195.74,115.93Z"/>
      <path class="cls-2" d="M71.2,64.11c-5.28.59-7.19-2.82-9.4-6.9-2.68,1.57-5.23,3-7.74,4.55a40,40,0,0,1-3.77,2.53,2.69,2.69,0,0,1-4.07-1.74,9.18,9.18,0,0,1-.36-1.67c-1.51-10.88-1.78-10.61,8-9.32,1.5.2,3.06,0,4.54.26,3.62.65,6.25-.79,8.47-3.48,1.06-1.28,2.27-2.43,3.31-3.53,6.68,3.45,8.45,7.22,5.09,12.77-3,4.92.11,9.12.26,13.64.06,1.63,1,3.25,1.57,4.86,2.63,7.35.23,10-8.59,8.75.24-4.39.46-8.87.77-13.34a1.74,1.74,0,0,1,.93-1.27C74.12,69,71.44,66.7,71.2,64.11ZM48.7,61.69l8.84-6.55c-3.53-2.11-6.45-2.39-10-1.07ZM71.84,82c2.09-.06,3.64-.77,3.43-2.85s-.37-4.74-3.37-5.85C70.63,76.48,70.06,79.21,71.84,82Z"/>
      <path class="cls-2" d="M94.62,42.86c4.68,1.82,5.41,6.29,7.08,10,.74,1.64-1.15,3.3-3.12,2.63-4.64-1.59-9.13-2.38-13.77,0a2.6,2.6,0,0,1-2.36-1,3.72,3.72,0,0,1-.21-3.09,11.62,11.62,0,0,1,3.53-3.62C88.63,46,91.69,44.46,94.62,42.86Zm-4.2,8,7,.63C95.43,46.39,95.05,46.33,90.42,50.91Z"/>
      <path class="cls-2" d="M63.09,31.67a33.85,33.85,0,0,1-1.68-3.56c-1.22-3.56,1.19-8,4.83-8.61a3.19,3.19,0,0,1,2.66,1.33,8.85,8.85,0,0,1,.66,3.87c.07,4.34.08,8.68,0,13a9.19,9.19,0,0,1-1,2.7C64.15,38.7,63.89,35,63,31.58l4,3c-.19-4.1-.33-7.18-.5-10.93C61.75,25.61,63.09,28.89,63.09,31.67Z"/>
      <path class="cls-2" d="M113.17,45l6.6-.1v1.31l-6.61-.07Z"/>
      <path class="cls-2" d="M91.8,14.55l8.52-.74c-3.13,2.63-3.13,2.63-8.69,1Z"/>
      <path class="cls-2" d="M109.31,71l3.59-.54,0,1L109.36,71Z"/>
    </g>
    <g>
      <path class="cls-3" d="M78.17,164c0,10.07,0,20.15,0,30.22,0,1.79-.07,2.94-2.4,2.77-3.53-.25-7.09-.2-10.63-.29-1-3.48-.35-7-.4-10.56-.1-8.73,0-17.46,0-26.19,0-.63.23-1.71-.5-1.72-1.23,0-.75,1.19-.83,1.94-.29,2.55-2,4.5-2.85,6.89-3,8.79-6.64,17.38-10.14,26a3.57,3.57,0,0,0-.42,1.83c.3,2-.88,2.14-2.39,2.07-2.65-.13-5.71.59-7.82-.52-1.49-.79-1.61-4-2.52-6.13-4.23-9.68-7.7-19.65-11.41-29.52a3.7,3.7,0,0,0-.92-1.63,13,13,0,0,0-1.41-.91c-.14.39-.47.83-.39,1.17,2.85,11.59.58,23.37,1.35,35,.14,2.13-.66,2.64-2.63,2.54a79.27,79.27,0,0,0-8.72,0c-1.94.11-2.14-.78-2.13-2.36,0-20.37.06-40.74,0-61.1,0-2.24.87-2.51,2.74-2.45,3.8.13,7.6.09,11.41,0a3.13,3.13,0,0,1,3.32,2.55c2.36,9.27,6.67,17.85,9.61,26.92,1.52,4.68,3.35,9.34,5.2,13.95a1.32,1.32,0,0,0,1.47.95c.79-.07,1.05-.47,1.24-1.21,2.13-8.47,6-16.33,8.9-24.51,1.89-5.25,4.07-10.41,5.77-15.73.79-2.45,2.16-3,4.37-2.92,4.23.12,8.45.14,12.68.2,1.06,4.15.37,8.37.45,12.56C78.27,150.61,78.17,157.33,78.17,164Z"/>
      <path class="cls-3" d="M131.89,164c0-10.07,0-20.14,0-30.21,0-1.93.36-2.69,2.51-2.67,12.75.1,25.5.08,38.25,0,1.68,0,2.42.38,2.29,2.2-.15,2,0,4-.05,6-.11,2.84-1.1,3.84-4,3.86-7.61.06-15.21.07-22.82,0-1.82,0-2.91.12-2.76,2.41.2,3.12,0,6.27.06,9.4.07,3.35.95,4.29,4.21,4.32,6.26.07,12.53.11,18.79,0,2.1,0,2.75.66,2.52,2.64-.29,2.62,1.14,6-.63,7.66-1.34,1.25-4.64.47-7.06.49-5.15,0-10.3.13-15.44,0-2.24-.08-2.46.87-2.44,2.74.09,7.38,0,14.77.06,22.15,0,1.31-.18,2.11-1.75,2-3.76-.15-7.53-.2-11.3-.29-.9-3.49-.32-7.05-.37-10.57C131.81,178.77,131.89,171.38,131.89,164Z"/>
      <path class="cls-3" d="M88.52,153.56c7.51,0,7.51,0,9.79,7.61,1.79,6,3.62,11.93,5.33,17.92.21.75.4,1.23,1.11,1.32,1,.11,1.67-.24,1.63-1.44-.12-3.28,1.64-6,2.58-9,1.45-4.55,2.37-9.26,4-13.79.56-1.55.28-2.86,2.54-2.69,2.67.2,5.36,0,8.05.05,4.48,0,4.64.09,2.8,4.84-6.37,16.42-11.9,33.13-17.3,49.89-1.47,4.57-3.88,8.73-7.86,11.45s-8.51,2.79-13,2.1a2.63,2.63,0,0,1-1.92-2.45c0-1.79.11-3.59,0-5.37s.23-2.57,2.42-2.79c6.36-.65,10.25-5.37,9.68-11.21a4.67,4.67,0,0,0-.4-1.84C94.23,192.05,93,185,90.52,178.42c-2.7-7.15-5.56-14.31-7.35-21.81-.73-3.05-1-3,2-3.05C86.28,153.54,87.4,153.56,88.52,153.56Z"/>
      <path class="cls-3" d="M259.07,197c-7.77,0-7.77,0-11.69-7.19a18,18,0,0,1-1.49-2.75c-.46-1.33-1.93-3.05-3.14-3.19s-1.89,1.84-2.43,3.29c-.35.95-1.74,1.48-2.24,2.43-1.25,2.37-1.65,6-3.54,7-2.2,1.25-5.63.34-8.53.37a10,10,0,0,1-1.34,0c-1.29-.18-2.93.67-3.81-.44-1.45-1.83.7-3.52,1.43-4.41,4.83-5.94,7.51-13.22,12.25-19.15.87-1.09,0-1.27-.29-2-1.58-4.22-4.78-7.44-6.86-11.28-1.7-3.15-3.71-6.06-5.57-9.09-.55-.9-1.79-1.51-1.17-2.77.48-1,1.57-.53,2.41-.59a8,8,0,0,1,2,0c4.22.74,9.14-.76,10.23.89.16,3.46,3.72,5.08,4.47,8.23.09.37.68.6.88,1,1.94,3.59,1.89,3.57,4.07.28.72-1.08,2-1.85,2.57-3,1.26-2.37,1.64-6,3.53-7,2.21-1.25,5.64-.34,8.54-.37h1.34c4.79,0,5.45.78,2.72,4.36-4,5.23-6.61,11.3-10.7,16.4-1.82,2.28-1.65,4.22-.3,6.45,2.7,4.48,5.08,9.19,8.19,13.36,1.92,2.57,2.35,6,5.09,8,1.11.83-.19,1.05-.59,1.07C263.1,197,261.08,197,259.07,197Z"/>
      <path class="cls-3" d="M180.23,162.74c0-10.51,0-21,0-31.52,0-1.77,0-3,2.37-2.79,3.53.25,7.09.19,10.63.26,1,3.48.4,7,.42,10.55.08,18.11,0,36.22,0,54.33,0,3.35,0,3.41-3,3.4-3.32,0-6.64-.13-10-.2-.94-3.26-.38-6.59-.42-9.88C180.17,178.84,180.23,170.79,180.23,162.74Z"/>
      <path class="cls-3" d="M215.15,172.84c0,7.37,0,14.75,0,22.12,0,1.3-.17,2.11-1.74,2-3.31-.13-6.63-.18-9.94-.26-.86-3-.38-6.15-.4-9.22-.06-12.51,0-25-.06-37.54,0-1.84.15-2.93,2.43-2.74,3.08.25,6.18.21,9.27.29.86,3,.34,6.14.4,9.21C215.22,162.11,215.15,167.47,215.15,172.84Z"/>
      <path class="cls-3" d="M208.8,143.25c-4.09-.1-7.19-3.08-7.07-6.86.11-3.25,2.45-7.12,8-6.57,4.79.46,7.06,3.37,6.68,7.18C216.1,140.4,214.17,143.51,208.8,143.25Z"/>
    </g>
    <g>
      <path class="cls-2" d="M93.1,115c0-.23,0-.45,0-.67.25-2.39-1.07-5.48.65-7,1.3-1.12,4.24-.48,6.44-.36,1.88.1,4-.8,5.6,1.12.55.65,1.51,0,2.25-.61,1.53-1.28,3.42-.41,5.13-.5a2.62,2.62,0,0,1,2.67,2.39c.22,4.24.12,8.5,0,12.75,0,.66-.66,1-1.44.94s-1.2-.43-1.2-1.21c0-2,0-4,0-6a10,10,0,0,0-1.09-4.25c-.68-1.51-1.08-2.1-2.61-2a2.92,2.92,0,0,0-3,2.86c-.13,2.9-.09,5.82,0,8.72,0,1.45-.5,2-1.92,1.88-1.17,0-2.19,0-2.15-1.64.06-2.9,0-5.81,0-8.72,0-1.79-1.13-3.1-2.76-3a2.83,2.83,0,0,0-2.62,3.17c.07,2.91,0,5.82,0,8.72,0,1.79-1.29,1.39-2.32,1.43s-1.76-.05-1.73-1.36C93.13,119.45,93.1,117.21,93.1,115Z"/>
      <path class="cls-2" d="M14.55,106.92c1-.09,2.24,0,2,1.6-.35,2.07,2.22,3.31,1.41,5.48-.07.21.44.62.67.94a6,6,0,0,1,1-.93c2-1.15,0-4,2.3-5.15.34-.17-.13-1.73,1.09-1.93a2.41,2.41,0,0,1,2.55,1.7c.51,1.36.22,3,.63,4.43A3.31,3.31,0,0,0,28,114.87c.39.15.39-1.22.7-1.54,1.37-1.42,1.33-3.1,1.29-4.84-.05-2.28,1.73-1.6,2.83-1.51,1.61.13,1.24,1.18.86,2.35-.89,2.76-1.59,5.58-2.34,8.39-.22.81.46,1.91-.52,2.44-1.26.67-.14,3.07-2.7,3s-1.86-1.61-2.23-3-1.62-2.46-1.33-4.15c.11-.63-.48-1.07-1.31-1.06s-1.47.52-1.27,1.09c.77,2.2-1.88,3.36-1.44,5.49.34,1.66-1.07,1.46-2.16,1.53-1.47.11-1.5-.72-1.91-1.9-1.44-4.1-1.4-8.64-3.89-12.43C11.93,107.76,12.88,106.92,14.55,106.92Z"/>
      <path class="cls-2" d="M42.88,123.07c-2.68,1.08-4.74-1.14-5.91-3.34-1-1.87-3.47-4.42-.28-6.76,2-6,2.34-6.28,7.93-6,3.43.15,6.62,5,5.5,8.47a1.33,1.33,0,0,1-1.46,1c-2.66,0-5.33,0-8,0a3.42,3.42,0,0,0-1.12.49,5.06,5.06,0,0,0,.63.93c1.85,1.79,3.46,4.46,6.47,1.45a1.3,1.3,0,0,1,2.1.63,2,2,0,0,1-.49,1.78C47,123.52,45.18,123,42.88,123.07Z"/>
      <path class="cls-2" d="M126.63,106.92c4.27,0,6.07,1.57,6.76,5.89.45,2.89,0,3.47-2.88,3.51-2.22,0-4.44,0-6.67,0-.52,0-1.38,0-.83,1a4.8,4.8,0,0,0,6.42,2.16c1.15-.51,2.06-1,2.57.4a2.12,2.12,0,0,1-1.55,2.58c-2.67.75-5.49,1.34-8.06-.41-1.65-1.12-2.38-2.95-3.31-4.63s.09-3,.75-4.64C122.07,107.26,122.14,106.93,126.63,106.92Z"/>
      <path class="cls-2" d="M83.19,123.05c-2.06.78-3.66-.6-5.25-2.35-1.36-1.49-2.52-2.76-2.38-5.11.31-5,3.4-8.73,7.58-8.67,5,.08,7.29,2.69,7.27,8.12C90.39,120.87,88.56,123.05,83.19,123.05Z"/>
      <path class="cls-2" d="M167,115.1c0,5.8-1.88,7.82-6.76,8a6.58,6.58,0,0,1-5.77-2.43c-1.32-1.54-2.45-2.83-2.31-5.14.3-4.93,3.44-8.7,7.62-8.62C164.64,107,167,109.69,167,115.1Z"/>
      <path class="cls-2" d="M67.5,123c-1.43-.16-2.91.43-4.3-.88a13.71,13.71,0,0,1-3.6-5.86c-.81-2.47,2.35-8.78,4.65-9.25a16.22,16.22,0,0,1,6.62,0c1.71.38,1.94,2.63,2.9,4s-.52,1.3-.82,1.9-.89.59-1.39,0a15.75,15.75,0,0,0-1.41-1.42c-2.74-2.55-3.19-2.5-5.57.42-1.74,2.12-1.26,4.49-.62,6.74.42,1.45,3.15,2.27,4.47,1.43.92-.58,1.48-1.78,2.42-2.24s2.3-.68,3.05.18-.85,1.1-1,1.92C72.46,123.28,70,123.24,67.5,123Z"/>
      <path class="cls-2" d="M148.29,123.05c-2.34,0-3.88-1.58-4.12-4.46a48.18,48.18,0,0,1,0-6.69c.09-1.63-.41-2.15-2.09-2.5a1.24,1.24,0,0,1,.26-2.36c2.2-.16,1.8-1.45,1.79-2.71,0-1.78,1.29-1.4,2.31-1.43s1.91,0,1.71,1.33c-.29,1.87.47,2.61,2.27,3.06.82.2.76,1.88-.12,2.09-1.47.35-2.32.64-2.17,2.43.18,2.21,0,4.45,0,6.68,0,.89-.09,1.87,1.2,1.85s1.61.57,1.47,1.6C150.58,123.68,149.15,122.83,148.29,123.05Z"/>
      <path class="cls-2" d="M56.84,111.6c0,3.34,0,6.68,0,10,0,1.79-1.31,1.37-2.32,1.41s-1.73-.05-1.73-1.35c0-6.69,0-13.38,0-20.07,0-1.79,1.31-1.36,2.33-1.4s1.74,0,1.72,1.35C56.81,104.91,56.84,108.25,56.84,111.6Z"/>
    </g>
  </g>
</svg>
